Coordinates
version=1
nRows=11
nColumns=40
inDegrees=yes

Units are S.I. units (second, meters, Newtons, ...)
If the header above contains a line with 'inDegrees', this indicates whether rotational values are in degrees (yes) or radians (no).

endheader
time	pelvis_tilt	pelvis_list	pelvis_rotation	pelvis_tx	pelvis_ty	pelvis_tz	hip_flexion_r	hip_adduction_r	hip_rotation_r	knee_angle_r	knee_angle_r_beta	ankle_angle_r	subtalar_angle_r	mtp_angle_r	hip_flexion_l	hip_adduction_l	hip_rotation_l	knee_angle_l	knee_angle_l_beta	ankle_angle_l	subtalar_angle_l	mtp_angle_l	lumbar_extension	lumbar_bending	lumbar_rotation	arm_flex_r	arm_add_r	arm_rot_r	elbow_flex_r	pro_sup_r	wrist_flex_r	wrist_dev_r	arm_flex_l	arm_add_l	arm_rot_l	elbow_flex_l	pro_sup_l	wrist_flex_l	wrist_dev_l
      0.00833300	     -0.87525601	     -4.13324118	     -3.74747445	      0.95052608	      0.98777891	     -0.46747752	    -11.06339770	      5.70547374	      9.21393349	      5.04533684	      0.08805774	     13.09058697	      0.00000000	      0.00000000	     25.78044573	     -6.90841969	      1.64222988	      7.30589122	      0.12751186	     -0.48689935	      0.00000000	      0.00000000	    -10.95046525	      4.91488310	      7.85895596	      2.30471331	     -8.31506977	     -5.05798723	     75.72959343	     56.21632261	      0.00000000	      0.00000000	    -19.68159756	     -2.63770640	     -9.61640624	     38.00854598	     74.15831540	      0.00000000	      0.00000000
      0.01666700	     -0.88043155	     -4.21515747	     -3.68374907	      0.95223827	      0.98557194	     -0.46887682	    -12.04933046	      5.60920741	      8.94323810	      4.71787456	      0.08234244	     13.28360250	      0.00000000	      0.00000000	     25.46807145	     -6.86093372	      1.79217208	      5.32979755	      0.09302252	     -0.06711171	      0.00000000	      0.00000000	    -10.73002866	      5.05523771	      7.81550520	      2.06349053	     -8.50462993	     -4.96339310	     76.24790937	     56.11456440	      0.00000000	      0.00000000	    -19.99098133	     -2.49683734	     -9.74139862	     38.07604503	     74.58894247	      0.00000000	      0.00000000
      0.02500000	     -0.90604530	     -4.29838299	     -3.66666423	      0.95346468	      0.98347854	     -0.46997795	    -12.92585221	      5.53713144	      8.76937446	      4.48284055	      0.07824033	     13.36486084	      0.00000000	      0.00000000	     25.28478673	     -6.85686352	      1.96647559	      3.71061404	      0.06476243	      0.14998043	      0.00000000	      0.00000000	    -10.55294061	      5.16211144	      7.81106965	      1.89473109	     -8.67627754	     -4.82742855	     76.59044282	     56.02550337	      0.00000000	      0.00000000	    -20.19977198	     -2.40150662	     -9.93162885	     38.08947956	     74.86628802	      0.00000000	      0.00000000
      0.03333300	     -0.84993475	     -4.35981536	     -3.67043158	      0.95396699	      0.98175382	     -0.47071535	    -13.72577503	      5.47533221	      8.72142018	      4.46472815	      0.07792421	     13.42851623	      0.00000000	      0.00000000	     25.18493737	     -6.86039548	      2.14419212	      2.68223621	      0.04681385	      0.10026296	      0.00000000	      0.00000000	    -10.58627829	      5.19060029	      7.79015443	      1.87047558	     -8.75780696	     -4.68540519	     76.80547332	     55.92255554	      0.00000000	      0.00000000	    -20.23854505	     -2.35324619	    -10.18418273	     38.11059430	     75.06138829	      0.00000000	      0.00000000
      0.04166700	     -0.85907257	     -4.33928533	     -3.73425251	      0.95400158	      0.98014031	     -0.47121501	    -14.27662171	      5.34709927	      8.82679394	      4.70294881	      0.08208194	     13.52422330	      0.00000000	      0.00000000	     25.35170259	     -6.81848671	      2.35232885	      2.39098995	      0.04173065	      0.26272055	      0.00000000	      0.00000000	    -10.60589502	      5.09394996	      7.83435238	      1.86207036	     -8.78166190	     -4.56154908	     76.85163804	     55.89605175	      0.00000000	      0.00000000	    -20.12738743	     -2.38956799	    -10.29576342	     38.07849619	     75.09187057	      0.00000000	      0.00000000
      0.05000000	     -0.79559794	     -4.25111292	     -3.82612186	      0.95409757	      0.97872562	     -0.47171082	    -14.84608278	      5.13970379	      8.94942803	      5.03611022	      0.08789670	     13.55802668	      0.00000000	      0.00000000	     25.46206677	     -6.72162945	      2.61945646	      2.50649454	      0.04374658	      0.27962411	      0.00000000	      0.00000000	    -10.69892108	      4.89953310	      7.90175093	      1.85094831	     -8.77110867	     -4.48557802	     76.77927932	     55.88201225	      0.00000000	      0.00000000	    -19.94701008	     -2.43265460	    -10.33558803	     38.02605468	     75.09851197	      0.00000000	      0.00000000
      0.05833300	     -0.47585612	     -4.00796825	     -3.95784129	      0.95457623	      0.97771756	     -0.47222708	    -15.57925988	      4.74677050	      8.80648938	      5.61368717	      0.09797732	     13.73714314	      0.00000000	      0.00000000	     25.34267481	     -6.46969320	      2.51814881	      3.12132323	      0.05447737	      0.55101322	      0.00000000	      0.00000000	    -11.01781619	      4.51135927	      7.96446019	      1.84301490	     -8.69931796	     -4.39737653	     76.55411407	     55.84764432	      0.00000000	      0.00000000	    -19.69146230	     -2.50869832	    -10.25564516	     37.77936523	     75.16960747	      0.00000000	      0.00000000
      0.06666700	     -0.16747694	     -3.72398734	     -4.08651536	      0.95532513	      0.97673792	     -0.47279280	    -16.28442325	      4.30607924	      8.64367556	      6.22386454	      0.10862693	     13.78282716	      0.00000000	      0.00000000	     25.35636537	     -6.17709064	      2.22462113	      4.30940732	      0.07521335	      0.89936718	      0.00000000	      0.00000000	    -11.27289745	      4.06842595	      8.04373292	      1.74421411	     -8.59694367	     -4.38997969	     76.23666180	     55.82244598	      0.00000000	      0.00000000	    -19.43577654	     -2.62585822	    -10.02599398	     37.58646689	     75.33009117	      0.00000000	      0.00000000
      0.07500000	      0.15378524	     -3.44614965	     -4.20421032	      0.95626184	      0.97583681	     -0.47333775	    -16.94006622	      3.87902801	      8.41469385	      6.95552114	      0.12139675	     13.76413996	      0.00000000	      0.00000000	     25.46083232	     -5.89036083	      1.68188085	      6.00242211	      0.10476203	      1.28853233	      0.00000000	      0.00000000	    -11.52258164	      3.61527378	      8.11650438	      1.56154249	     -8.46524333	     -4.41821490	     75.86857506	     55.81613525	      0.00000000	      0.00000000	    -19.16994914	     -2.77535553	     -9.78105853	     37.42121408	     75.53267205	      0.00000000	      0.00000000
      0.08333300	      0.41532713	     -3.19453707	     -4.34683026	      0.95741255	      0.97491994	     -0.47387381	    -17.46408915	      3.47707474	      8.13484310	      7.82264588	      0.13653093	     13.69157837	      0.00000000	      0.00000000	     25.64462812	     -5.63740753	      1.02623375	      7.98876163	      0.13943019	      1.62229102	      0.00000000	      0.00000000	    -11.67712932	      3.18781007	      8.21332044	      1.26930932	     -8.38185057	     -4.45211946	     75.48811755	     55.83180290	      0.00000000	      0.00000000	    -18.95374240	     -2.94765476	     -9.63439839	     37.32972520	     75.70592784	      0.00000000	      0.00000000
      0.09166700	      0.49136316	     -3.02056057	     -4.41536763	      0.95864031	      0.97381661	     -0.47445068	    -17.65828237	      3.21039333	      7.96460565	      8.96083414	      0.15639606	     13.61586402	      0.00000000	      0.00000000	     26.06549826	     -5.42631536	      0.40879799	     10.12369219	      0.17669176	      1.87065752	      0.00000000	      0.00000000	    -11.61164410	      2.86239741	      8.28576759	      0.76181654	     -8.29644845	     -4.41952278	     75.12984963	     55.88876478	      0.00000000	      0.00000000	    -18.72863412	     -3.10282721	     -9.57953839	     37.33487968	     75.86812020	      0.00000000	      0.00000000
